<svg display="none" xmlns="http://www.w3.org/2000/svg">
    <symbol id="search-svg" width="100%" height="100%" viewBox="0 0 17 17" fill="none">
        <path 
            d="M11.1087 11.1087L16 16M12.7391 6.86957C12.7391 10.1112 10.1112 12.7391 6.86957 12.7391C3.62789 
            12.7391 1 10.1112 1 6.86957C1 3.62789 3.62789 1 6.86957 1C10.1112 1 12.7391 3.62789 12.7391 6.86957Z"
            stroke-width="1.5" stroke-linecap="round"
        />
    </symbol>
    <symbol id="random-svg" width="100%" height="100%" viewBox="0 0 24 24">
        <g fill="none">
            <path 
                d="M24 0v24H0V0zM12.594 23.258l-.012.002-.071.035-.02.004-.014-.004-.071-.036c-.01-.003-.019 
                0-.024.006l-.004.01-.017.428.005.02.01.013.104.074.015.004.012-.004.104-.074.012-.016.004-.017-.017-.427c-.002-.01-.009-.017-.016-.018m.264-.113-.014.002-.184.093-.01.01-.003.011.018.43.005.012.008.008.201.092c.012.004.023 0 .029-.008l.004-.014-.034-.614c-.003-.012-.01-.02-.02-.022m-.715.002a.023.023 0 0 
                0-.027.006l-.006.014-.034.614c0 .012.007.02.017.024l.015-.002.201-.093.01-.008.003-.011.018-.43-.003-.012-.01-.01z"
            />
            <path
                fill="#FFFAFA"
                d="M6.301 6a4 4 0 0 1 3.312 1.756l.118.186 4.253 7.087a2 2 0 0 0 1.553.965L15.7 16h1.194l.02-.415.022-.36.012-.159c.027-.346.352-.557.631-.41l.306.164.36.203.198.117.43.263.229.147.463.31.21.147.377.273.315.24.133.104c.236.188.225.566-.023.762l-.28.217-.34.252-.4.282-.456.305-.462.291-.416.249-.365.205-.307.165c-.275.143-.572-.036-.598-.36l-.025-.347-.024-.415-.01-.23H15.7a4 4 0 0 1-3.312-1.756l-.118-.186-4.253-7.087a2 2 0 0 
                0-1.553-.965L6.3 8H4a1 1 0 0 1-.117-1.993L4 6zm3.714 7.643a1 1 0 0 1 .342 1.371l-.626 1.044A4 4 0 0 1 6.301 
                18H4a1 1 0 1 1 0-2h2.301a2 2 0 0 0 1.715-.971l.627-1.043a1 1 0 0 1 1.371-.344Zm7.563-8.988.306.165.36.203.198.117.43.263.229.147.463.31.21.147.377.273.315.24.133.104c.236.188.225.566-.023.762l-.28.217-.34.252c-.124.09-.257.184-.4.282l-.456.305-.462.291-.416.249-.365.206-.307.164c-.275.143-.572-.036-.598-.36l-.025-.347-.024-.415-.01-.23H15.7a2 2 0 0 0-1.627.836l-.088.135-.626 1.043a1 1 0 0 1-1.77-.925l.055-.104.626-1.043a4 4 0 0 1 
                3.209-1.936l.22-.006h1.195l.02-.415.022-.36.012-.159c.027-.346.352-.557.631-.41Z"
            />
        </g>
    </symbol>  
    <symbol id="rectangle-svg" width="100%" height="100%" viewBox="0 0 27 31" fill="none">
        <path
            d="M24.8296 12.0167C27.5411 13.5474 27.5411 17.4526 24.8296 18.9833L5.96637 29.6319C3.29989 31.1372 3.72183e-07 
            29.2106 3.35669e-07 26.1486L8.17023e-08 4.85141C4.51881e-08 1.78939 3.2999 -0.137154 5.96638 1.36812L24.8296 
            12.0167Z"
        />
    </symbol>
    <symbol id="add-queue-svg" width="100%" height="100%" viewBox="0 0 24 24">
        <path 
            fill="#FFFAFA" 
            d="M20 6h-8l-1.41-1.41C10.21 4.21 9.7 4 9.17 4H4c-1.11 0-1.99.89-1.99 2L2 18c0 1.11.89 2 2 2h16c1.1 0 
            2-.9 2-2V8c0-1.1-.9-2-2-2m-2 8h-2v2c0 .55-.45 1-1 1s-1-.45-1-1v-2h-2c-.55 0-1-.45-1-1s.45-1 1-1h2v-2c0-.55.45-1 
            1-1s1 .45 1 1v2h2c.55 0 1 .45 1 1s-.45 1-1 1"
        />
    </symbol>
    <symbol id="login-svg" width="100%" height="100%" viewBox="0 0 24 24">
        <path
            d="M12 12q-1.65 0-2.825-1.175T8 8t1.175-2.825T12 4t2.825 1.175T16 8t-1.175 2.825T12 12m-8 
            8v-2.8q0-.85.438-1.562T5.6 14.55q1.55-.775 3.15-1.162T12 13t3.25.388t3.15 1.162q.725.375 1.163 
            1.088T20 17.2V20z"
        />
    </symbol>
    <symbol id="logo-svg" width="100%" height="100%" viewBox="0 0 373 366" fill="none">
        <g>
            <path d="M176.814 1.05315C177.2 -0.0198479 175.537 -0.436852 175.126 0.588148C167.223 20.3321 162.022 35.1052 154.791 54.2351C143.522 56.9701 132.543 61.0431 122.317 66.5091C109.96 73.1141 98.6232 81.3701 88.6272 91.1901C78.5442 101.094 69.6432 112.647 63.1682 125.237C56.2392 138.71 51.4892 153.343 49.1262 168.306C49.0012 169.097 48.8932 169.889 48.7832 170.681H52.0262C55.7082 144.731 66.8022 119.805 83.9282 99.9412C92.8402 89.6052 103.376 80.4312 114.892 73.0922C120.582 69.4672 126.531 66.1532 132.652 63.3122C138.995 60.3682 145.588 58.0981 152.244 55.9801C152.949 55.7561 153.659 55.5472 154.371 55.3442C153.975 56.3882 153.575 57.4441 153.166 58.5161C101.986 73.1861 63.0992 116.901 55.4452 170.68H97.1212C101.24 150.713 111.584 133.033 126.018 119.716C125.372 121.136 124.724 122.556 124.082 123.978C121.503 129.696 118.893 135.4 116.286 141.105C116.014 141.7 116.879 142.226 117.176 141.625C119.989 135.941 122.743 130.23 125.469 124.504C126.63 122.066 127.763 119.616 128.893 117.164C129.625 116.541 130.354 115.915 131.104 115.314C130.108 117.858 129.112 120.402 128.117 122.947C123.942 133.63 119.688 144.285 115.591 154.999C113.587 160.241 111.531 165.461 109.472 170.68H112.912C117.881 157.674 122.817 144.656 127.743 131.636C130.175 125.209 132.593 118.777 135.009 112.344C135.012 112.342 135.014 112.341 135.017 112.339L155.677 57.8281C155.666 57.8311 155.655 57.8341 155.643 57.8361C156.046 56.7831 156.448 55.7291 156.851 54.6751C156.858 54.6731 156.866 54.6711 156.874 54.6701L157.262 53.6461C157.256 53.6471 157.249 53.6492 157.243 53.6502C163.69 36.7861 170.115 19.9141 176.501 3.02815C177.507 0.37715 175.854 3.72115 176.814 1.05315Z" fill="#F7F5ED"/>
            <path d="M200.075 154.825C198.508 151.05 196.944 147.274 195.384 143.496C193.795 139.645 192.36 135.672 190.223 132.089C189.774 131.336 188.622 131.836 188.824 132.679C189.698 136.328 191.228 139.773 192.641 143.243C194.058 146.724 195.479 150.203 196.908 153.679C199.24 159.352 201.591 165.018 203.947 170.681H206.709C204.49 165.399 202.272 160.116 200.075 154.825Z" fill="#F7F5ED"/>
            <path d="M161.29 52.7981L138.594 113.925L117.521 170.681H171.462L189.112 119.9L211.484 170.681H265.967L240.375 116.416C244.505 119.502 248.396 122.91 252 126.595C262.373 137.198 270.115 150.252 274.783 164.32C275.479 166.417 276.093 168.54 276.649 170.681H280.244C280.081 170.055 279.924 169.429 279.749 168.806C275.537 153.779 267.841 140.279 257.49 128.641C251.859 122.311 245.385 116.582 238.25 111.91L234.999 105.016C260.225 118.093 278.886 142.054 284.792 170.681H326.482C317.979 110.931 270.914 63.6061 211.284 54.7321L186.741 2.69215C185.314 -0.332854 180.949 -0.146856 179.785 2.98814L161.29 52.7981Z" fill="#F7F5ED"/>
            <path d="M307.343 352.521C303.28 350.682 299.303 348.637 295.262 346.737C291.143 344.8 287.085 342.746 282.937 340.861C282.495 340.66 282.018 340.584 281.567 340.634C281.561 340.621 281.559 340.608 281.552 340.595C281.12 339.733 280.739 338.824 280.179 338.042C279.685 337.353 279.231 336.709 278.858 335.949C277.996 334.19 277.169 332.412 276.326 330.643C274.709 327.249 273.136 323.836 271.579 320.414C269.26 315.317 266.95 310.216 264.628 305.12C264.638 305.114 264.647 305.107 264.657 305.1L247.471 266.997C247.465 267.002 247.459 267.007 247.452 267.012C246.353 264.548 245.255 262.083 244.152 259.62C239.446 249.109 234.815 238.562 230.219 228L227.234 228.036C231.31 237.403 235.472 246.734 239.571 256.089C241.413 260.295 243.28 264.489 245.155 268.68C229.569 279.658 210.57 286.113 190.057 286.113C170.104 286.113 151.577 280.012 136.235 269.577L150.352 228.962L92.2456 229.663L93.4526 233.215L74.7186 283.672L59.3966 324.937C58.8916 326.298 58.8676 327.792 59.3316 329.168L70.1916 361.445C71.5126 365.37 76.1776 366.998 79.6536 364.747L108.157 346.288C109.342 345.521 110.237 344.38 110.701 343.046L121.437 312.158C128.255 315.569 135.435 318.341 142.869 320.034C145.562 320.647 148.28 321.133 151.011 321.54C163.386 325.216 176.49 327.2 190.058 327.2C216.573 327.2 241.322 319.654 262.29 306.605C264.267 310.918 266.257 315.224 268.267 319.523C269.998 323.224 271.745 326.917 273.43 330.639C274.307 332.577 275.186 334.513 276.066 336.449C276.501 337.405 276.797 338.303 277.084 339.313C277.393 340.403 277.889 341.426 278.343 342.47C278.663 343.205 279.265 343.464 279.876 343.412C280.027 343.892 280.326 344.316 280.794 344.529C289.158 348.331 297.622 351.959 306.196 355.243C307.758 355.843 308.882 353.217 307.343 352.521ZM122.38 309.442L122.419 309.329C123.092 309.712 123.758 310.106 124.439 310.478C123.747 310.146 123.067 309.787 122.38 309.442Z" fill="#F7F5ED"/>
            <path d="M62.0078 351.224C61.1238 348.097 60.2017 344.971 59.4617 341.806C58.7217 338.643 57.7938 335.533 56.7308 332.464C56.2118 330.965 55.6147 329.495 55.0167 328.026C54.6257 327.066 54.2697 325.785 53.7257 324.722C53.8127 324.582 53.8898 324.431 53.9538 324.264C60.0508 308.181 66.2528 292.133 72.4608 276.088L72.4597 276.085L72.5157 275.946C73.0897 274.463 73.6608 272.98 74.2348 271.497C74.2518 271.52 74.2698 271.543 74.2878 271.566L75.6837 268.114C75.6537 268.072 75.6218 268.031 75.5918 267.989C75.9258 267.127 76.2587 266.265 76.5927 265.403C76.6307 265.461 76.6717 265.518 76.7097 265.576L91.2847 229.536L59.9487 229.914C63.3037 240.987 68.0067 251.474 73.8987 261.164C73.5347 262.082 73.1737 263.002 72.8087 263.919C71.9267 262.575 71.0687 261.216 70.2377 259.843C64.5307 250.412 59.8648 240.438 56.5618 229.955L53.2918 229.994C55.7738 238.111 58.9997 246.004 62.9177 253.523C65.4267 258.34 68.2707 263.019 71.3817 267.52C69.3127 272.709 67.2358 277.894 65.1588 283.08C60.8898 293.735 57.1757 304.652 52.6017 315.18C51.4787 317.765 50.4617 320.397 49.4047 323.01C49.1517 323.634 49.1968 324.178 49.4138 324.623C49.4138 324.628 49.4108 324.632 49.4108 324.638C49.3048 326.154 50.3657 327.771 50.9357 329.153C51.5787 330.715 52.1928 332.289 52.8578 333.842C54.1278 336.809 55.4318 339.753 56.7228 342.709C58.0128 345.662 59.0888 348.69 60.0358 351.77C60.5278 353.368 61.0028 354.958 61.3608 356.592C61.6808 358.056 61.8088 359.617 62.9558 360.687C63.3278 361.034 63.8958 360.872 64.0528 360.398C64.5488 358.9 63.8838 357.453 63.4158 356.026C62.8928 354.437 62.4618 352.831 62.0078 351.224Z" fill="#F7F5ED"/>
            <path d="M308.371 260.591C314.659 250.135 319.587 238.77 322.917 226.741L236.641 227.781L249.589 257.172L269.473 302.306L283.529 334.211C284.609 336.663 286.584 338.61 289.05 339.657L311.504 349.183C317.104 351.559 323.547 348.706 325.552 342.963L333.349 320.628C334.258 318.023 334.109 315.165 332.932 312.669L308.371 260.591Z" fill="#F7F5ED"/>
            <path d="M369.006 190.312L353.122 177.05C351.426 175.634 349.287 174.859 347.077 174.861L327.022 174.883C327.022 174.882 327.022 174.881 327.022 174.88L285.579 174.926C285.579 174.927 285.579 174.928 285.579 174.929L281.269 174.934C281.269 174.933 281.269 174.932 281.268 174.931L277.672 174.935C277.672 174.936 277.673 174.937 277.673 174.938L267.98 174.949L267.979 174.946L213.39 175.007L213.391 175.009L208.522 175.014C208.522 175.013 208.522 175.013 208.521 175.012L205.747 175.015C205.747 175.016 205.749 175.016 205.749 175.017L169.941 175.057L169.942 175.055L115.875 175.115L111.223 175.121L107.723 175.124L96.3115 175.138L54.8695 175.183L51.4525 175.187L48.2175 175.191L32.2425 175.209C29.9515 175.211 27.7395 176.049 26.0215 177.565L3.18551 193.651C-1.13349 197.463 -1.04849 204.226 3.36651 207.927L25.2615 222.419C26.9855 223.865 29.1715 224.646 31.4215 224.619L51.6925 224.382C51.7085 224.444 51.7275 224.504 51.7435 224.566L54.9775 224.526C54.9615 224.465 54.9415 224.405 54.9255 224.344L58.3665 224.304C58.3815 224.364 58.4005 224.423 58.4165 224.484L153.166 223.316L153.208 223.195L225.737 222.347C225.748 222.372 225.758 222.396 225.769 222.421L228.739 222.384C228.729 222.36 228.718 222.336 228.708 222.312L234.202 222.248L234.232 222.317L324.328 221.206C324.329 221.202 324.33 221.198 324.331 221.194L346.381 220.936C348.554 220.911 350.65 220.135 352.316 218.74L369.013 204.76C373.515 200.994 373.51 194.073 369.006 190.312Z" fill="#F7F5ED"/>
            <path d="M104.123 90.6702C115.685 79.0312 130.096 70.2422 145.738 65.2922" stroke="#B73232" stroke-miterlimit="10"/>
            <path d="M97.6406 97.2082C98.4856 96.4352 99.3296 95.6622 100.175 94.8892" stroke="#B73232" stroke-miterlimit="10"/>
            <path d="M119.881 83.9602C124.449 80.7282 129.132 77.6592 133.92 74.7632" stroke="#B73232" stroke-miterlimit="10"/>
            <path d="M92.4414 165.897C94.1804 154.699 97.7884 143.794 103.069 133.768" stroke="#B73232" stroke-miterlimit="10"/>
            <path d="M93.1208 143.217C89.5538 150.45 87.3958 158.373 86.8008 166.415" stroke="#B73232" stroke-miterlimit="10"/>
            <path d="M83.6238 159.021C83.0848 161.535 82.8278 164.11 82.8578 166.681" stroke="#B73232" stroke-miterlimit="10"/>
            <path d="M67.3401 143.726C64.7481 150.087 63.0291 156.802 62.2461 163.626" stroke="#B73232" stroke-miterlimit="10"/>
            <path d="M219.158 61.1652C230.719 63.6062 241.9 67.8382 252.179 73.6642" stroke="#B73232" stroke-miterlimit="10"/>
            <path d="M221.262 66.2432C225.957 67.2842 230.509 68.9662 234.754 71.2272" stroke="#B73232" stroke-miterlimit="10"/>
            <path d="M224.051 71.9471C226.064 72.4521 228.032 73.1391 229.923 73.9961" stroke="#B73232" stroke-miterlimit="10"/>
            <path d="M234.119 95.7151C244.856 100.786 254.698 107.747 263.056 116.182" stroke="#B73232" stroke-miterlimit="10"/>
            <path d="M312.41 140.628C316.105 148.292 318.681 156.496 320.029 164.897" stroke="#B73232" stroke-miterlimit="10"/>
            <path d="M313.434 156.716C314.087 158.703 314.503 160.768 314.67 162.853" stroke="#B73232" stroke-miterlimit="10"/>
            <path d="M315.963 231.532C314.606 235.178 313.072 238.758 311.367 242.255" stroke="#B73232" stroke-miterlimit="10"/>
            <path d="M310.858 231.787C310.603 232.723 310.347 233.659 310.092 234.596" stroke="#B73232" stroke-miterlimit="10"/>
            <path d="M245.527 232.795C249.867 243.348 254.207 253.902 258.547 264.455" stroke="#B73232" stroke-miterlimit="10"/>
            <path d="M250.344 232.555C251.961 236.215 253.578 239.874 255.195 243.534" stroke="#B73232" stroke-miterlimit="10"/>
            <path d="M255.178 233.073C255.519 233.839 255.861 234.604 256.202 235.37" stroke="#B73232" stroke-miterlimit="10"/>
            <path d="M316.721 292.558C319.375 297.485 321.853 302.507 324.149 307.61" stroke="#B73232" stroke-miterlimit="10"/>
            <path d="M318.771 303.787C319.452 305.063 320.133 306.34 320.813 307.617" stroke="#B73232" stroke-miterlimit="10"/>
            <path d="M283.314 317.561C285.172 321.822 287.03 326.084 288.889 330.345" stroke="#B73232" stroke-miterlimit="10"/>
            <path d="M143.619 233.318C141.491 239.105 139.363 244.892 137.234 250.679" stroke="#B73232" stroke-miterlimit="10"/>
            <path d="M139.027 233.575C138.267 236.355 137.328 239.085 136.219 241.745" stroke="#B73232" stroke-miterlimit="10"/>
            <path d="M134.751 233.857C134.044 235.548 133.338 237.24 132.631 238.931" stroke="#B73232" stroke-miterlimit="10"/>
            <path d="M80.0799 289.501C75.3339 302.576 70.2079 315.513 64.7109 328.29" stroke="#B73232" stroke-miterlimit="10"/>
            <path d="M73.6161 319.595C71.5211 324.217 69.5911 328.914 67.8301 333.674" stroke="#B73232" stroke-miterlimit="10"/>
            <path d="M72.2053 331.648C71.0723 334.269 70.1883 336.997 69.5703 339.785" stroke="#B73232" stroke-miterlimit="10"/>
            <path d="M137.271 276.167C147.715 283.328 159.908 287.918 172.482 289.42" stroke="#B73232" stroke-miterlimit="10"/>
            <path d="M136.988 281.313C140.534 283.473 144.201 285.435 147.966 287.185" stroke="#B73232" stroke-miterlimit="10"/>
            <path d="M135.979 284.87C137.68 285.978 139.382 287.085 141.083 288.193" stroke="#B73232" stroke-miterlimit="10"/>
            <path d="M131.885 309.389C137.895 311.861 144.145 313.748 150.518 315.015" stroke="#B73232" stroke-miterlimit="10"/>
            <path d="M231.24 313.618C240.58 310.481 249.511 306.128 257.737 300.704" stroke="#B73232" stroke-miterlimit="10"/>
            <path d="M242.434 303.281C246.936 301.305 251.297 299.009 255.474 296.416" stroke="#B73232" stroke-miterlimit="10"/>
            <path d="M247.268 295.839C249.058 294.994 250.848 294.149 252.639 293.304" stroke="#B73232" stroke-miterlimit="10"/>
            <path d="M116.814 310.681C115.371 315.251 113.752 319.766 111.963 324.213" stroke="#B73232" stroke-miterlimit="10"/>
            <path d="M284.609 149.039C286.845 153.593 288.538 158.415 289.639 163.368" stroke="#B73232" stroke-miterlimit="10"/>
            <path d="M193.211 113.805C197.53 124.027 201.849 134.249 206.168 144.47" stroke="#B73232" stroke-miterlimit="10"/>
            <path d="M207.988 148.797C208.922 150.926 209.855 153.055 210.789 155.183" stroke="#B73232" stroke-miterlimit="10"/>
            <path d="M180.663 17.8372C177.906 26.5082 174.914 35.1032 171.688 43.6102" stroke="#B73232" stroke-miterlimit="10"/>
            <path d="M184.453 20.3771C183.603 23.1011 182.753 25.8241 181.902 28.5481" stroke="#B73232" stroke-miterlimit="10"/>
            <path d="M139.893 137.871C136.613 145.852 133.334 153.834 130.055 161.815" stroke="#B73232" stroke-miterlimit="10"/>
            <path d="M139.023 152.381C137.921 155.191 136.819 158.002 135.717 160.812" stroke="#B73232" stroke-miterlimit="10"/>
            <path d="M142.813 155.687C142.222 157.391 141.63 159.094 141.039 160.798" stroke="#B73232" stroke-miterlimit="10"/>
            <path d="M251.371 151.616C253.083 155.356 254.795 159.096 256.508 162.836" stroke="#B73232" stroke-miterlimit="10"/>
            <path d="M30.5176 180.248C39.9646 180.081 49.4116 179.914 58.8576 179.746" stroke="#B73232" stroke-miterlimit="10"/>
            <path d="M63.707 179.713C67.452 179.542 71.196 179.371 74.941 179.2" stroke="#B73232" stroke-miterlimit="10"/>
            <path d="M38.4297 219.054C52.8127 219.393 67.2087 219.205 81.5787 218.491" stroke="#B73232" stroke-miterlimit="10"/>
            <path d="M86.6855 218.255C90.6015 218.333 94.5215 218.248 98.4305 218" stroke="#B73232" stroke-miterlimit="10"/>
            <path d="M266.178 180.265C289.229 179.263 312.296 178.649 335.367 178.424" stroke="#B73232" stroke-miterlimit="10"/>
            <path d="M341.494 178.681C343.537 178.681 345.579 178.681 347.622 178.681" stroke="#B73232" stroke-miterlimit="10"/>
            <path d="M324.645 183.532C332.046 183.277 339.453 183.195 346.858 183.284" stroke="#B73232" stroke-miterlimit="10"/>
            <path d="M343.793 187.362C346.176 187.362 348.559 187.362 350.942 187.362" stroke="#B73232" stroke-miterlimit="10"/>
            <path d="M206.943 217.572C222.006 217.115 237.069 216.657 252.132 216.2" stroke="#B73232" stroke-miterlimit="10"/>
            <path d="M258.002 216.162C261.918 215.932 265.835 215.701 269.751 215.471" stroke="#B73232" stroke-miterlimit="10"/>
            <path d="M235.027 211.394C242.516 211.226 250.006 211.058 257.495 210.89" stroke="#B73232" stroke-miterlimit="10"/>
            <path d="M145.92 195.975C162.005 195.794 178.09 195.613 194.175 195.432" stroke="#B73232" stroke-miterlimit="10"/>
            <path d="M187.027 190.418C191.367 190.248 195.708 190.078 200.048 189.908" stroke="#B73232" stroke-miterlimit="10"/>
            <path d="M200.715 43.1492C206.005 55.7392 211.296 68.3292 216.586 80.9192" stroke="#B73232" stroke-miterlimit="10"/>
            <path d="M221.283 88.0232C223.14 92.2852 224.997 96.5472 226.854 100.809" stroke="#B73232" stroke-miterlimit="10"/>
            <path d="M70.1367 235.097C71.1437 239.747 72.8507 244.244 75.1847 248.391" stroke="#B73232" stroke-miterlimit="10"/>
            <path d="M74.2852 234.558C75.2272 237.308 76.1692 240.059 77.1122 242.809" stroke="#B73232" stroke-miterlimit="10"/>
            <path d="M246.588 274.659C241.649 278.059 236.396 281 230.916 283.434" stroke="#B73232" stroke-miterlimit="10"/>
            <path d="M289.311 230.517C292.263 237.098 295.215 243.678 298.168 250.259" stroke="#B73232" stroke-miterlimit="10"/>
            <path d="M300.611 254.989C301.683 256.719 302.575 258.56 303.268 260.473" stroke="#B73232" stroke-miterlimit="10"/>
            <path d="M285.252 232.208C286.024 234.259 286.797 236.31 287.569 238.36" stroke="#B73232" stroke-miterlimit="10"/>
            <path d="M12.4729 220.522C13.5549 221.08 14.6209 221.679 15.6379 222.348C16.1399 222.678 16.6339 223.019 17.1189 223.372C17.3619 223.548 17.6039 223.727 17.8419 223.91C17.9679 224.006 18.0879 224.114 18.2229 224.204C18.3879 224.315 18.5719 224.379 18.7549 224.455C19.0309 224.57 19.4249 224.434 19.6189 224.227C19.6229 224.223 19.6269 224.219 19.6299 224.215C19.5169 224.281 19.4039 224.347 19.2909 224.413C19.4369 224.385 19.6529 224.381 19.7849 224.21C19.9169 224.038 19.8669 223.825 19.8549 223.671C19.8199 223.8 19.7849 223.93 19.7499 224.059C19.7519 224.055 19.7549 224.051 19.7569 224.047C19.9809 223.68 19.8639 223.279 19.6179 222.97C19.2339 222.489 18.6049 222.16 18.0909 221.825C17.5719 221.487 17.0459 221.162 16.5119 220.85C15.4589 220.234 14.3909 219.648 13.2909 219.119C12.8959 218.929 12.4129 219.011 12.1789 219.411C11.9679 219.775 12.0809 220.32 12.4729 220.522Z" fill="#F7F5ED"/>
            <path d="M145.466 258.705C145.177 259.354 144.894 259.987 144.538 260.601C144.209 261.169 143.887 261.737 143.58 262.317C143.273 262.897 142.974 263.481 142.682 264.068C142.341 264.753 141.634 265.729 141.931 266.5C142.126 267.006 142.698 267.521 143.296 267.275C143.636 267.135 143.899 267.011 144.101 266.686C144.228 266.481 144.301 266.232 144.389 266.007C144.509 265.702 144.62 265.393 144.733 265.085C144.969 264.448 145.199 263.81 145.419 263.168C145.639 262.526 145.84 261.881 146.035 261.231C146.238 260.551 146.506 259.912 146.78 259.257C147.091 258.515 145.797 257.962 145.466 258.705Z" fill="#F7F5ED"/>
            <path d="M243.117 322.614C245.584 321.481 248.051 320.349 250.518 319.216C251.73 318.66 252.942 318.103 254.153 317.547C254.759 317.269 255.366 316.992 255.971 316.712C256.619 316.413 257.318 316.166 257.832 315.66C258.48 315.021 258.043 313.6 257.025 313.713C255.669 313.864 254.282 314.805 253.065 315.403C251.871 315.989 250.676 316.576 249.482 317.162C247.008 318.377 244.534 319.591 242.06 320.806C240.841 321.405 241.907 323.17 243.117 322.614Z" fill="#F7F5ED"/>
            <path d="M208.813 36.9402C208.262 35.7422 207.711 34.5442 207.16 33.3462C206.128 31.1022 205.047 28.8822 203.979 26.6552C201.777 22.0612 199.359 17.5732 197.1 13.0052C196.783 12.3632 195.883 12.9262 196.156 13.5572C198.156 18.1902 199.992 22.8932 202.048 27.4992C203.057 29.7592 204.048 32.0272 205.093 34.2702C205.614 35.3902 206.136 36.5112 206.657 37.6312C207.1 38.5842 207.337 39.7592 208.479 39.9972C208.786 40.0612 209.132 39.9572 209.291 39.6672C209.84 38.6622 209.254 37.8972 208.813 36.9402Z" fill="#F7F5ED"/>
            <path d="M213.573 45.9682C213.499 45.6462 213.339 45.3642 213.185 45.0752C212.961 44.6552 212.737 44.2352 212.514 43.8152C212.388 43.5782 212.115 43.3822 211.86 43.3122C211.598 43.2402 211.25 43.2732 211.017 43.4222C210.784 43.5732 210.578 43.7972 210.514 44.0762C210.446 44.3752 210.489 44.6432 210.624 44.9192C210.835 45.3472 211.045 45.7752 211.255 46.2022C211.309 46.3132 211.364 46.4232 211.418 46.5332C211.507 46.7142 211.642 46.8632 211.774 47.0142C211.942 47.2052 212.111 47.3662 212.369 47.4412C212.616 47.5132 212.932 47.4992 213.156 47.3672C213.383 47.2342 213.557 46.9742 213.622 46.7292C213.693 46.4672 213.631 46.2212 213.573 45.9682Z" fill="#F7F5ED"/>
            <path d="M331.952 167.295C329.738 156.569 327.171 145.894 322.82 135.8C318.491 125.756 313.415 115.76 306.832 106.986C303.169 102.102 299.265 97.2862 294.682 93.2322C294.284 92.8802 293.783 93.4041 294.108 93.8061C297.528 98.0421 301.084 102.158 304.264 106.584C307.397 110.945 310.417 115.381 313.102 120.035C318.507 129.403 322.571 139.44 325.483 149.853C327.109 155.671 328.371 161.686 328.851 167.714C329.033 169.988 332.419 169.559 331.952 167.295Z" fill="#F7F5ED"/>
            <path d="M326.081 227.339C325.631 228.202 325.526 229.191 325.31 230.134C325.087 231.108 324.847 232.078 324.59 233.043C324.11 234.844 323.571 236.629 322.983 238.398C322.396 240.165 321.752 241.913 321.053 243.639C320.283 245.54 319.684 247.541 318.884 249.416C318.585 250.117 319.522 250.725 319.936 250.031C320.969 248.299 322.066 246.706 322.891 244.847C323.687 243.054 324.429 241.237 325.108 239.397C325.8 237.522 326.421 235.621 326.977 233.701C327.236 232.806 327.481 231.906 327.712 231.003C327.962 230.023 328.358 228.955 328.294 227.938C328.224 226.838 326.661 226.227 326.081 227.339Z" fill="#F7F5ED"/>
            <path d="M240.468 267.171C239.949 266.284 238.818 266.029 237.937 266.507C237.269 266.869 237.001 267.494 236.469 267.979C236.092 268.323 235.635 268.575 235.203 268.845C234.202 269.47 233.188 270.073 232.161 270.655C231.135 271.236 230.09 271.778 229.049 272.331C228.015 272.88 227.055 273.59 226.007 274.1C225.345 274.422 225.81 275.551 226.513 275.299C227.623 274.901 228.786 274.684 229.88 274.219C231.005 273.74 232.119 273.232 233.221 272.703C234.286 272.191 235.341 271.657 236.383 271.1C236.899 270.825 237.408 270.486 237.962 270.294C238.584 270.078 239.227 270.127 239.803 269.702C240.607 269.11 241.01 268.098 240.468 267.171Z" fill="#F7F5ED"/>
            <path d="M220.577 276.386C220.47 276.221 220.333 276.083 220.168 275.977C219.904 275.806 219.584 275.809 219.289 275.862C219.171 275.883 219.053 275.896 218.938 275.931C218.817 275.967 218.693 275.998 218.569 276.024C218.357 276.068 218.17 276.18 217.977 276.276C217.926 276.302 217.869 276.322 217.819 276.35C217.729 276.4 217.626 276.488 217.55 276.557C217.547 276.56 217.545 276.564 217.543 276.567C217.499 276.597 217.453 276.626 217.412 276.658C217.077 276.787 216.787 277.09 216.805 277.474C216.822 277.849 217.059 278.204 217.436 278.303C217.486 278.316 217.536 278.326 217.586 278.338C217.675 278.382 217.768 278.413 217.865 278.441C217.938 278.48 218.017 278.512 218.106 278.531C218.261 278.565 218.421 278.577 218.58 278.572C218.645 278.57 218.709 278.567 218.774 278.562C218.907 278.552 219.043 278.548 219.171 278.507C219.292 278.469 219.415 278.408 219.531 278.356C219.857 278.209 220.142 278.02 220.399 277.769C220.579 277.593 220.681 277.359 220.714 277.114C220.746 276.87 220.714 276.599 220.577 276.386Z" fill="#F7F5ED"/>
            <path d="M147.465 324.815C139.749 323.927 132.006 320.98 125.309 317.113C125.003 316.936 124.517 316.887 124.216 317.113C123.848 317.39 123.685 317.566 123.68 318.048C123.674 318.574 124.03 318.906 124.475 319.092C128.237 320.666 131.902 322.442 135.782 323.727C139.594 324.99 143.443 325.765 147.464 325.847C148.144 325.86 148.107 324.889 147.465 324.815Z" fill="#F7F5ED"/>
            <path d="M122.977 323.859C122.651 323.82 122.43 324.007 122.308 324.295C122.046 324.919 121.709 325.528 121.475 326.199C121.363 326.522 121.232 326.844 121.137 327.172C121.042 327.5 120.977 327.841 120.897 328.173C120.766 328.72 121.069 329.367 121.65 329.499C122.204 329.625 122.836 329.333 122.976 328.746C123.056 328.414 123.152 328.081 123.216 327.745C123.283 327.393 123.315 327.03 123.363 326.674C123.463 325.941 123.452 325.195 123.505 324.456C123.527 324.159 123.257 323.892 122.977 323.859Z" fill="#F7F5ED"/>
            <path d="M321.187 273.1C320.843 272.021 320.2 271.104 319.614 270.142C319.069 269.247 318.524 268.352 317.979 267.458C316.87 265.637 315.773 263.809 314.612 262.02C314.014 261.1 312.693 261.896 313.155 262.872C314.07 264.803 315.052 266.698 316.022 268.602C316.498 269.537 316.975 270.472 317.451 271.407C317.964 272.413 318.411 273.425 319.15 274.286C319.946 275.214 321.547 274.227 321.187 273.1Z" fill="#F7F5ED"/>
            <path d="M48.7531 156.212C48.7471 155.728 48.7401 155.234 48.5611 154.781C48.4101 154.398 48.0191 154.299 47.6991 154.553C47.3011 154.87 47.0511 155.316 46.8051 155.756C46.4291 156.088 46.3001 156.523 46.1411 157.046C45.9711 157.607 45.8001 158.162 45.6861 158.737C45.4671 159.841 45.2801 160.953 45.1111 162.066C44.9381 163.203 44.8151 164.345 44.7171 165.491C44.6171 166.665 44.7651 167.806 44.7221 168.976C44.6881 169.888 46.2111 170.132 46.3491 169.196C46.5111 168.093 46.8981 167.048 47.0961 165.948C47.2951 164.846 47.5191 163.748 47.7321 162.649C47.9381 161.591 48.1701 160.539 48.4111 159.488C48.5321 158.959 48.6131 158.427 48.7051 157.892C48.8061 157.294 48.9701 156.755 48.7531 156.212Z" fill="#F7F5ED"/>
            <path d="M50.2805 147.886C50.2835 147.861 50.2865 147.837 50.2895 147.812C50.3005 147.73 50.2975 147.747 50.2825 147.863C50.2705 147.828 50.3005 147.742 50.3055 147.707C50.3275 147.565 50.3665 147.421 50.3725 147.278C50.3785 147.147 50.3345 146.999 50.3145 146.868C50.2665 146.557 49.8635 146.456 49.6255 146.588C49.5045 146.655 49.3695 146.722 49.2715 146.822C49.1685 146.927 49.0835 147.064 48.9965 147.183C48.9195 147.288 48.8505 147.398 48.7775 147.505C48.5885 147.638 48.4385 147.829 48.3845 148.046C48.2365 148.635 48.1435 149.237 48.0915 149.842C48.0735 150.049 48.2015 150.333 48.3525 150.472C48.4995 150.607 48.6655 150.69 48.8635 150.717C49.2755 150.772 49.7505 150.515 49.8405 150.079C49.9465 149.564 50.0945 149.061 50.2805 148.57C50.2925 148.483 50.3035 148.396 50.3155 148.308C50.3185 148.221 50.2855 148.143 50.2605 148.063C50.2685 148.004 50.2735 147.944 50.2805 147.886Z" fill="#F7F5ED"/>
            <path d="M64.7346 269.814C63.9786 271.323 63.1976 272.777 62.5396 274.336C61.9076 275.831 61.2696 277.324 60.6466 278.823C60.0216 280.327 59.4046 281.835 58.7836 283.341C58.1446 284.889 57.3476 286.429 56.8396 288.023C56.3456 289.571 58.7576 290.63 59.4956 289.143C60.2416 287.64 60.7456 285.986 61.3656 284.426C61.9666 282.914 62.5666 281.403 63.1676 279.891C63.7676 278.381 64.3466 276.862 64.9346 275.346C65.5476 273.765 65.9986 272.174 66.5056 270.561C66.8296 269.527 65.2306 268.824 64.7346 269.814Z" fill="#F7F5ED"/>
        </g>
    </symbol>
    <symbol id="key-svg" width="100%" height="100%" viewBox="0 0 485.017 485.017">
        <g>
            <path 
                d="M361.205,68.899c-14.663,0-28.447,5.71-38.816,16.078c-21.402,21.403-21.402,56.228,0,77.631 
                c10.368,10.368,24.153,16.078,38.815,16.078s28.447-5.71,38.816-16.078c21.402-21.403,21.402-56.228,0-77.631 
                C389.652,74.609,375.867,68.899,361.205,68.899z M378.807,141.394c-4.702,4.702-10.953,7.292-17.603,7.292 
                s-12.901-2.59-17.603-7.291c-9.706-9.706-9.706-25.499,0-35.205c4.702-4.702,10.953-7.291,17.603-7.291s12.9,2.589,17.603,7.291 
                C388.513,115.896,388.513,131.688,378.807,141.394z"
            />
            <path 
                d="M441.961,43.036C414.21,15.284,377.311,0,338.064,0c-39.248,0-76.146,15.284-103.897,43.036
                c-42.226,42.226-54.491,105.179-32.065,159.698L0.254,404.584l-0.165,80.268l144.562,0.165v-55.722h55.705l0-55.705h55.705v-64.492 
                l26.212-26.212c17.615,7.203,36.698,10.976,55.799,10.976c39.244,0,76.14-15.282,103.889-43.032 C499.25,193.541,499.25,100.325,441.961,43.036z 
                M420.748,229.617c-22.083,22.083-51.445,34.245-82.676,34.245 c-18.133,0-36.237-4.265-52.353-12.333l-9.672-4.842l-49.986,49.985v46.918h-55.705l0,55.705h-55.705v55.688l-84.5-0.096 
                l0.078-37.85L238.311,208.95l-4.842-9.672c-22.572-45.087-13.767-99.351,21.911-135.029C277.466,42.163,306.83,30,338.064,30 
                c31.234,0,60.598,12.163,82.684,34.249C466.34,109.841,466.34,184.025,420.748,229.617z"
            />
        </g>
    </symbol>
    <symbol id="google-svg" width="100%" height="100%" viewBox="0 0 24 24">
        <path
            d="M11.99 13.9v-3.72h9.36c.14.63.25 1.22.25 2.05c0 5.71-3.83 9.77-9.6 9.77c-5.52 0-10-4.48-10-10S6.48 2 12 2c2.7 0 4.96.99 6.69 2.61l-2.84 
            2.76c-.72-.68-1.98-1.48-3.85-1.48c-3.31 0-6.01 2.75-6.01 6.12s2.7 6.12 6.01 6.12c3.83 0 5.24-2.65 5.5-4.22h-5.51z"
        />
    </symbol>
    <symbol id="discord-svg" width="100%" height="100%" viewBox="0 0 24 24">
        <path 
            d="M19.27 5.33C17.94 4.71 16.5 4.26 15 4a.1.1 0 0 0-.07.03c-.18.33-.39.76-.53 1.09a16.1 16.1 0 0 
            0-4.8 0c-.14-.34-.35-.76-.54-1.09c-.01-.02-.04-.03-.07-.03c-1.5.26-2.93.71-4.27 1.33c-.01 0-.02.01-.03.02c-2.72 4.07-3.47 8.03-3.1 11.95c0 
            .02.01.04.03.05c1.8 1.32 3.53 2.12 5.24 2.65c.03.01.06 0 .07-.02c.4-.55.76-1.13 1.07-1.74c.02-.04 
            0-.08-.04-.09c-.57-.22-1.11-.48-1.64-.78c-.04-.02-.04-.08-.01-.11c.11-.08.22-.17.33-.25c.02-.02.05-.02.07-.01c3.44 1.57 7.15 1.57 10.55 
            0c.02-.01.05-.01.07.01c.11.09.22.17.33.26c.04.03.04.09-.01.11c-.52.31-1.07.56-1.64.78c-.04.01-.05.06-.04.09c.32.61.68 1.19 1.07 
            1.74c.03.01.06.02.09.01c1.72-.53 3.45-1.33 5.25-2.65c.02-.01.03-.03.03-.05c.44-4.53-.73-8.46-3.1-11.95c-.01-.01-.02-.02-.04-.02M8.52 14.91c-1.03 
            0-1.89-.95-1.89-2.12s.84-2.12 1.89-2.12c1.06 0 1.9.96 1.89 2.12c0 1.17-.84 2.12-1.89 2.12m6.97 0c-1.03 0-1.89-.95-1.89-2.12s.84-2.12 1.89-2.12c1.06 
            0 1.9.96 1.89 2.12c0 1.17-.83 2.12-1.89 2.12"
        />
    </symbol>
    <symbol id="tg-svg" width="100%" height="100%" viewBox="0 0 24 24">
        <path 
            d="M20.464 4.41a.75.75 0 0 1 .277.707l-2.065 13.049l-.003.02a4 4 0 0 1-.064.343a1.1 1.1 0 0 1-.26.49a1.06 1.06 0 0 1-.758.327a1.1 1.1 0 0 
            1-.53-.145a4 4 0 0 1-.296-.186l-.018-.011l-2.467-1.649l-2.353 1.921a5 5 0 0 1-.342.264a1.1 1.1 0 0 1-.605.21a1.06 1.06 0 0 1-.836-.39a1.1 1.1 0 
            0 1-.227-.605a5 5 0 0 1-.011-.43v-.01l-.136-3.748l-5.256-1.55l-.026-.007a7 7 0 0 1-.504-.16c-.11-.043-.402-.156-.577-.44a1.05 1.05 0 0 
            1-.056-1.003c.143-.303.42-.447.525-.501c.134-.07.308-.142.483-.215l15.353-6.384a.75.75 0 0 1 .752.104M10.298 13.16l5.23-4.903l-9.892 
            3.529zm7.617-5.097l-6.208 5.827l2.944 1.91l2.605 1.741z"
        />
    </symbol>
    <symbol id="email-svg" width="100%" height="100%" viewBox="0 0 24 24">
        <path 
            d="M20 4H4c-1.1 0-1.99.9-1.99 2L2 18c0 1.1.9 2 2 2h16c1.1 0 2-.9 2-2V6c0-1.1-.9-2-2-2m-.4 4.25l-7.07 
            4.42c-.32.2-.74.2-1.06 0L4.4 8.25a.85.85 0 1 1 .9-1.44L12 11l6.7-4.19a.85.85 0 1 1 .9 1.44"
        />
    </symbol>
    <symbol id="key_v2-svg" width="100%" height="100%" viewBox="0 0 24 24">
        <path
            d="M12.65 10A5.99 5.99 0 0 0 7 6c-3.31 0-6 2.69-6 6s2.69 6 6 6a5.99 5.99 0 0 0 5.65-4H17v4h4v-4h2v-4zM7 
            14c-1.1 0-2-.9-2-2s.9-2 2-2s2 .9 2 2s-.9 2-2 2"
        />
    </symbol>
    <symbol id="key_v3-svg" width="100%" height="100%" viewBox="0 0 24 24">
        <path 
            d="M22 19h-6v-4h-2.68c-1.14 2.42-3.6 4-6.32 4c-3.86 0-7-3.14-7-7s3.14-7 7-7c2.72 0 5.17 1.58 6.32 
            4H24v6h-2zm-4-2h2v-4h2v-2H11.94l-.23-.67C11.01 8.34 9.11 7 7 7c-2.76 0-5 2.24-5 5s2.24 5 5 5c2.11 0 4.01-1.34 4.71-3.33l.23-.67H18zM7 
            15c-1.65 0-3-1.35-3-3s1.35-3 3-3s3 1.35 3 3s-1.35 3-3 3m0-4c-.55 0-1 .45-1 1s.45 1 1 1s1-.45 1-1s-.45-1-1-1"
        />
    </symbol>
    <symbol id="token-svg" width="100%" height="100%" viewBox="0 0 24 24">
        <path 
            d="M5.5 15v-4.5H4V9h3v6zM9 15v-2.5q0-.425.288-.712T10 11.5h2v-1H9V9h3.5q.425 0 .713.288T13.5 10v1.5q0 
            .425-.288.713t-.712.287h-2v1h3V15zm6 0v-1.5h3v-1h-2v-1h2v-1h-3V9h3.5q.425 0 .713.288T19.5 10v4q0 .425-.288.713T18.5
            15z"
        />
    </symbol>
    <symbol id="loader-svg" width="100%" height="100%" viewBox="0 0 16 16">
        <path 
            fill="none" stroke="#666464" 
            d="m13.17 3.07l-1.64.71c-.48-.4-1.03-.72-1.63-.94l-.22-1.79a.51.51 0 0 0-.4-.44C8.86.54 8.44.5 8 .5s-.86.04-1.28.11c-.22.04-.38.22-.4.44l-.21 
            1.79c-.6.22-1.15.54-1.63.94l-1.65-.71a.49.49 0 0 0-.58.13c-.55.65-.99 1.4-1.29 2.21c-.08.21 0 .44.18.58l1.45 1.08a4.9 4.9 0 0 0 0 1.87l-1.45 
            1.08c-.18.13-.25.37-.18.58c.3.81.74 1.55 1.28 2.2c.14.17.38.22.58.13l1.65-.71c.48.4 1.03.72 1.63.94l.21 1.79c.03.22.19.4.4.44c.43.07.85.11 
            1.29.11s.86-.04 1.28-.11c.22-.04.38-.22.4-.44l.21-1.79c.6-.22 1.15-.54 1.63-.94l1.65.71c.2.09.44.04.58-.13c.54-.65.98-1.39 1.28-2.2c.08-.21 
            0-.44-.18-.57L13.4 8.95c.07-.32.1-.63.1-.95s-.03-.63-.09-.94l1.45-1.08c.18-.13.25-.37.18-.58c-.3-.81-.74-1.55-1.28-2.2a.51.51 0 0 
            0-.59-.13z"
        />
        <circle cx="8" cy="8" r="2.5" fill="none" stroke="#666464"/>
    </symbol>
    <symbol id="close-svg" width="100%" height="100%" viewBox="0 0 24 24">
        <path
            fill="none" stroke-linecap="round" stroke-linejoin="round" stroke-width="2"
            d="m16 16l-4-4m0 0L8 8m4 4l4-4m-4 4l-4 4"
        />
    </symbol>
</svg>
